<svg width="56" height="29" viewBox="0 0 56 29" fill="none" xmlns="http://www.w3.org/2000/svg">
<g clip-path="url(#clip0_1212_240)">
<path d="M19.5822 15.1052L19.9507 14.7654C19.9766 15.0261 20.0819 15.2736 20.2532 15.4768C20.179 15.7767 20.3797 16.0713 20.1982 16.3898C19.9233 16.9057 19.6817 17.4376 19.475 17.9823C19.3118 18.3716 19.1661 18.7662 19.0377 19.1661C19.0023 19.407 18.9271 19.6409 18.815 19.8589C18.6692 20.0632 18.54 20.2676 18.3887 20.472C18.3313 20.5299 18.2954 20.6045 18.2864 20.6842C18.2774 20.7639 18.296 20.8442 18.3392 20.9126C18.3997 21.0002 18.32 21.1541 18.254 21.263C18.0775 21.5843 17.9382 21.9234 17.8387 22.2742C17.814 22.3512 17.7452 22.4228 17.726 22.4998C17.6964 22.586 17.6964 22.6791 17.726 22.7652C17.8222 22.967 17.6517 23.1262 17.5995 23.2961C17.5487 23.4251 17.4841 23.5488 17.407 23.665C17.2475 23.9596 16.9092 24.1162 16.5325 24.2702C16.4718 24.2056 16.3922 24.1604 16.3043 24.1405C16.2164 24.1206 16.1243 24.1269 16.0402 24.1587C15.8905 24.1685 15.7401 24.1551 15.5947 24.1189C15.5947 24.1428 15.5452 24.1826 15.559 24.1985C15.6827 24.3418 15.6222 24.4639 15.5012 24.586C15.3307 24.7506 15.361 24.947 15.3197 25.1328C15.24 25.4646 15.2042 25.8043 15.0915 26.1281C14.99 26.3513 14.8607 26.5616 14.7065 26.7545C14.6714 26.7917 14.6253 26.8176 14.5745 26.8288C14.5115 26.8412 14.4524 26.8672 14.4014 26.9049C14.3504 26.9426 14.309 26.9911 14.2802 27.0465C14.2641 27.0755 14.2418 27.1009 14.2148 27.1211C14.1878 27.1412 14.1567 27.1556 14.1235 27.1633C13.6261 27.2378 13.1187 27.2215 12.6275 27.1155C12.6275 27.1155 12.6275 27.1022 12.5945 27.0837C12.6448 26.934 12.7201 26.7933 12.8172 26.6669C12.913 26.5461 12.9808 26.4067 13.0159 26.2583C13.051 26.1099 13.0527 25.956 13.0207 25.807C12.9963 25.7115 12.9852 25.6133 12.9877 25.515C13.1087 24.7187 13.216 23.9225 13.381 23.1262C13.496 22.6961 13.6384 22.2733 13.8072 21.8601C13.9194 21.8547 14.0264 21.8134 14.1115 21.7427C14.1967 21.6721 14.2551 21.5761 14.2775 21.47C14.305 21.3691 14.3077 21.255 14.4837 21.186C14.6102 21.3638 14.4452 21.5204 14.4452 21.6982C14.5717 21.6982 14.6185 21.6213 14.6267 21.5523C14.6817 21.0426 15.097 20.6127 15.2482 20.1243C15.4485 19.6134 15.6913 19.119 15.9742 18.6459C16.0473 18.46 16.1097 18.2704 16.1612 18.0779C16.1612 18.0354 16.23 18.0036 16.2602 17.9638C16.3565 17.8496 16.4472 17.7328 16.5352 17.6161L16.4775 17.5922L16.219 17.8894L16.131 17.8549C16.3922 17.3241 16.7772 16.8516 17.0275 16.3288L16.9642 16.3049L16.725 16.5278C16.725 16.4402 16.7057 16.3925 16.725 16.3606C16.8944 16.1734 17.0043 15.943 17.0412 15.6971C17.0828 15.5492 17.1517 15.4098 17.2447 15.2856C17.4256 15.0083 17.5209 14.687 17.5197 14.3593C17.5197 14.1735 17.55 14.1682 17.8222 14.1735C18.0138 14.1548 18.2065 14.1957 18.3722 14.2903C18.4548 14.3385 18.5512 14.3599 18.6472 14.3514C18.7228 14.3371 18.8012 14.3448 18.8722 14.3737C18.9432 14.4025 19.0037 14.4511 19.046 14.5133C19.2302 14.6938 19.4392 14.8557 19.4447 15.1078L19.5822 15.1052Z" fill="white"/>
<path d="M20.4952 14.5239C20.4 14.5359 20.3031 14.5244 20.2137 14.4905C20.1242 14.4566 20.0451 14.4015 19.9837 14.3301C19.904 14.2027 19.9837 14.1045 20.1047 14.0222C20.1874 13.9618 20.2805 13.916 20.3797 13.8869C20.4833 13.8591 20.5927 13.8579 20.6969 13.8835C20.8011 13.9091 20.8965 13.9606 20.9737 14.0329C21.0645 14.1443 20.9957 14.2983 20.784 14.4124C20.6909 14.4567 20.5943 14.494 20.4952 14.5239Z" fill="white"/>
<path d="M16.7884 26.022C16.7223 26.071 16.6491 26.1103 16.5711 26.1388C16.5354 26.1388 16.4721 26.1016 16.4226 26.0804C16.4787 26.026 16.5394 25.9763 16.6041 25.9317C16.6687 25.9553 16.7305 25.9855 16.7884 26.022Z" fill="white"/>
<path d="M25.0548 19.4262C24.7798 19.5165 24.678 19.7155 24.5048 19.8881C24.5671 19.9331 24.6428 19.9574 24.7207 19.9574C24.7985 19.9574 24.8742 19.9331 24.9365 19.8881C25.0838 19.8149 25.2253 19.7315 25.36 19.6386C25.6321 19.4312 25.9676 19.3164 26.3143 19.3121C26.4045 19.2968 26.4883 19.2572 26.5563 19.198C26.6085 19.1608 26.6278 19.1024 26.7268 19.0546L26.8258 19.2988C26.8879 19.3055 26.9506 19.3055 27.0128 19.2988C27.3706 19.2018 27.7411 19.1553 28.1128 19.1608C28.3053 19.0122 28.484 19.1051 28.6958 19.1608C28.8415 19.198 29.0285 19.1263 29.1193 19.2855C29.1193 19.3068 29.265 19.3041 29.3365 19.2855C29.4087 19.2584 29.4847 19.2423 29.562 19.2378L29.287 19.551L29.5923 19.4554C29.5923 19.6147 29.6968 19.7023 29.9058 19.766C30.1036 19.8457 30.2888 19.952 30.4558 20.0818C30.6208 20.1853 30.4915 20.3074 30.4558 20.4136C30.3995 20.5141 30.325 20.604 30.2358 20.679C29.9223 21.0214 29.5923 21.3585 29.2898 21.7062C29.1578 21.8548 29.089 22.0353 28.9598 22.1893C28.759 22.4255 28.528 22.6511 28.3135 22.882C28.099 23.1129 27.9423 23.3173 27.7305 23.5217C27.439 23.803 27.1228 24.0738 26.8175 24.3498L25.272 25.7565C24.997 26.022 24.722 26.2874 24.447 26.5528C24.3838 26.6112 24.2985 26.6802 24.3013 26.7439C24.3013 26.9562 24.0593 27.0093 23.897 27.1049C23.7035 27.1875 23.4922 27.2239 23.281 27.211C23.2185 27.2037 23.1598 27.1778 23.1133 27.1367C22.9579 27.036 22.8157 26.9175 22.6898 26.7837C22.6212 26.6835 22.5237 26.605 22.4093 26.5578C22.2949 26.5106 22.1687 26.4969 22.0463 26.5183C22.0463 26.5183 22.0188 26.5342 22.0188 26.5475C22.0188 26.651 22.1178 26.8129 22.0573 26.8474C21.8989 27.0044 21.7008 27.1188 21.4825 27.1792C21.3505 27.1978 21.2268 27.2429 21.0563 27.2854C20.9764 27.2061 20.908 27.1168 20.8528 27.0199C20.5596 26.4207 20.3177 25.7993 20.1295 25.162C20.0388 24.809 19.904 24.4586 19.7858 24.1003C19.7683 24.0577 19.7363 24.0221 19.695 23.9994C19.6777 23.9945 19.6616 23.9861 19.648 23.9747C19.6343 23.9633 19.6233 23.9492 19.6157 23.9333C19.6082 23.9175 19.6042 23.9003 19.6042 23.8828C19.6041 23.8654 19.6079 23.8481 19.6153 23.8322C19.651 23.7154 19.585 23.6332 19.4063 23.5933C19.3188 23.573 19.2417 23.5231 19.189 23.4527C19.1639 23.3996 19.1282 23.3518 19.0838 23.3122C19.0394 23.2725 18.9873 23.2418 18.9305 23.2218C18.8123 23.1766 18.7793 23.0147 18.6968 22.89C18.8278 22.7695 18.9407 22.6319 19.0323 22.4812C19.1452 22.2937 19.275 22.1161 19.42 21.9504C19.5438 21.7566 19.717 21.5814 19.8463 21.3903C20.3175 20.6581 20.882 19.9858 21.5265 19.3891C21.8015 19.1555 22.093 18.9432 22.368 18.7149C22.8253 18.317 23.2586 17.8943 23.666 17.4488C23.8283 17.279 24.0208 17.1277 24.1913 16.9631C24.3123 16.8463 24.4195 16.7216 24.5378 16.6021C24.5955 16.5437 24.6725 16.4933 24.7303 16.4349C24.8348 16.3287 24.9778 16.2279 25.0053 16.1084C25.0784 15.9709 25.185 15.8524 25.316 15.7634C25.3435 15.7395 25.4013 15.6997 25.4178 15.705C25.6213 15.7767 25.7175 15.6174 25.8853 15.5909L25.943 15.7342C26.0386 15.7343 26.1332 15.7153 26.2208 15.6783C26.3084 15.6413 26.387 15.5871 26.4518 15.5192C26.5233 15.4496 26.6093 15.3955 26.7041 15.3603C26.7989 15.325 26.9004 15.3096 27.0018 15.3148L26.9 15.49L27.2988 15.3387L27.2163 15.1529C27.164 15.0229 27.2383 14.9194 27.406 14.8875C27.5738 14.8557 27.681 14.9087 27.703 15.0441C27.725 15.2299 27.604 15.3732 27.428 15.5086C27.4862 15.5308 27.55 15.5359 27.6112 15.5231C27.6724 15.5104 27.7283 15.4804 27.7718 15.4369C28.0083 15.2591 28.2448 15.0813 28.4648 14.8902C28.6848 14.6991 28.9378 14.4469 29.1825 14.2293C29.2641 14.1672 29.3505 14.1113 29.441 14.062L29.518 14.0886C29.5158 14.1917 29.5066 14.2945 29.4905 14.3965C29.452 14.577 29.397 14.7574 29.3503 14.9273C29.3503 14.9432 29.331 14.9592 29.3503 14.9724C29.5153 15.352 29.1248 15.6148 28.9708 15.9253C28.9295 16.0102 28.7508 16.0554 28.6435 16.1244C28.4105 16.2711 28.2103 16.4616 28.055 16.6844C27.9808 16.7853 27.8268 16.8569 27.7305 16.9498C27.6343 17.0427 27.5545 17.0799 27.6948 17.1781C27.7278 17.2046 27.6728 17.2949 27.648 17.3984L27.4253 17.2259C27.318 17.3798 27.0843 17.4913 27.219 17.6851C27.241 17.7196 27.175 17.8231 27.12 17.839C26.9715 17.8815 26.9385 17.9664 26.878 18.0566C26.7769 18.1899 26.6617 18.3126 26.5343 18.4229C26.3088 18.6353 26.0833 18.8476 25.8385 19.0467C25.7596 19.1405 25.6512 19.2071 25.5297 19.2363C25.4082 19.2655 25.2801 19.2557 25.1648 19.2086L25.0328 19.3917L25.0548 19.4262ZM22.4175 23.312C22.511 23.45 22.4698 23.6305 22.7228 23.7022C22.7558 23.7022 22.7668 23.7738 22.775 23.811C22.7781 23.8672 22.7855 23.9231 22.797 23.9782C22.9428 24.371 23.094 24.7745 23.2453 25.1593C23.2645 25.2098 23.2948 25.2575 23.3388 25.3504C23.4185 25.2602 23.5038 25.2071 23.501 25.154C23.501 25.0425 23.501 24.8886 23.413 24.8222C23.2425 24.6922 23.3553 24.5223 23.2315 24.3923C23.2315 24.379 23.2893 24.31 23.336 24.2808C23.49 24.1826 23.6495 24.0923 23.809 24.0154C24.0706 23.8378 24.3465 23.6806 24.634 23.5456C25.0768 23.3404 25.4731 23.0527 25.8 22.6989C26.0943 22.4335 26.262 22.0857 26.57 21.8071C26.878 21.5284 27.0678 21.2205 27.461 21.0108C27.4995 20.9922 27.5133 20.9471 27.5408 20.9126L27.4968 20.8754C27.4088 20.9099 27.2713 20.9285 27.2218 20.9842C27.0836 21.1302 26.9052 21.2352 26.7075 21.2868C26.4325 21.4089 26.1218 21.5071 25.8633 21.6451C25.6048 21.7832 25.2335 21.8071 25.1235 22.0698C25.1235 22.0698 25.085 22.0698 25.063 22.0698C25.0066 22.0601 24.9484 22.0677 24.8966 22.0915C24.8448 22.1153 24.8021 22.1541 24.7743 22.2025C24.7563 22.2209 24.7346 22.2354 24.7104 22.245C24.6862 22.2546 24.6602 22.2591 24.634 22.2583C24.363 22.2686 24.1003 22.3513 23.875 22.4972C23.3738 22.671 22.9084 22.9289 22.5 23.2589L22.4175 23.312Z" fill="white"/>
<path d="M22.06 16.9074C22.06 17.0719 21.862 17.2285 21.6392 17.2285C21.4165 17.2285 21.147 17.0799 21.147 16.9286C21.147 16.7773 21.3642 16.6181 21.62 16.6074C21.719 16.5947 21.8194 16.6185 21.9009 16.6741C21.9825 16.7297 22.0393 16.813 22.06 16.9074Z" fill="white"/>
<path d="M26.2317 14.293C26.228 14.3284 26.2169 14.3628 26.1992 14.394C26.1814 14.4252 26.1573 14.4527 26.1283 14.4747C26.0993 14.4968 26.066 14.5129 26.0304 14.5223C25.9948 14.5317 25.9576 14.534 25.921 14.5292C25.7615 14.5292 25.646 14.4469 25.646 14.3275C25.646 14.208 25.7697 14.1098 25.9375 14.1072C26.1052 14.1045 26.2262 14.1709 26.2317 14.293Z" fill="white"/>
<path d="M25.6789 26.4732C25.6036 26.5243 25.5199 26.5629 25.4314 26.5873C25.3379 26.5873 25.2417 26.5448 25.2774 26.4705C25.3265 26.4147 25.3949 26.3779 25.4699 26.367C25.5249 26.3617 25.5772 26.4201 25.6789 26.4732Z" fill="white"/>
<path d="M28.4784 17.2949C28.4014 17.202 28.3161 17.1462 28.3271 17.1038C28.3381 17.0613 28.4371 17.0109 28.5086 16.9976C28.5801 16.9843 28.6406 17.0693 28.6379 17.1064C28.6351 17.1436 28.5499 17.2046 28.4784 17.2949Z" fill="white"/>
<path d="M20.927 17.356C20.817 17.3958 20.751 17.4409 20.696 17.4329C20.641 17.425 20.5997 17.3666 20.553 17.3294C20.608 17.2976 20.663 17.2418 20.718 17.2418C20.773 17.2418 20.828 17.2976 20.927 17.356Z" fill="white"/>
<path d="M24.0236 28.5116C23.9649 28.5583 23.899 28.5959 23.8284 28.6231C23.7899 28.6231 23.7321 28.5753 23.6826 28.5488C23.7294 28.509 23.7679 28.4532 23.8284 28.4347C23.8889 28.4161 23.9301 28.4718 24.0236 28.5116Z" fill="white"/>
<path d="M24.7385 14.1045L25.0905 14.0514C24.9668 14.2346 24.9668 14.2346 24.7523 14.1629L24.7385 14.1045Z" fill="white"/>
<path d="M20.916 16.7826C20.9655 16.8384 21.0205 16.8755 21.0095 16.8968C20.9816 16.9404 20.9388 16.9732 20.8885 16.9897C20.848 16.9798 20.811 16.9596 20.7812 16.9313C20.8214 16.8779 20.8665 16.8281 20.916 16.7826Z" fill="white"/>
<path d="M26.625 28.939C26.57 28.9681 26.5397 28.9973 26.504 29C26.4682 29.0027 26.4215 28.9602 26.427 28.9443C26.4345 28.9291 26.4457 28.916 26.4596 28.9058C26.4734 28.8957 26.4896 28.8888 26.5067 28.8859C26.537 28.8806 26.5727 28.9124 26.625 28.939Z" fill="white"/>
<path d="M25.0464 19.4316C25.0766 19.4316 25.1124 19.4077 25.1344 19.4156C25.1663 19.426 25.1947 19.4443 25.2169 19.4687C25.2169 19.4687 25.1949 19.5006 25.1839 19.5006C25.1555 19.5012 25.1273 19.4958 25.1014 19.4846C25.0829 19.4666 25.0671 19.446 25.0546 19.4236L25.0464 19.4316Z" fill="white"/>
<path d="M38.3977 19.0732L37.9357 19.044L37.0584 19.7527L37.4132 19.8934C37.3389 20.0606 37.5149 20.1774 37.6304 20.3127C37.9699 20.7545 38.3501 21.1658 38.7662 21.5416C38.8047 21.5735 38.8294 21.6239 38.8762 21.6372C39.1512 21.7142 39.2364 21.9185 39.4014 22.0858C39.4454 22.0698 39.5032 22.0645 39.5169 22.0433C39.6682 21.8044 39.9569 21.7911 40.2622 21.7991H40.3254C40.4959 21.8946 40.6389 21.9796 40.7902 22.0645C40.9414 22.1495 40.9909 22.2503 40.9112 22.3963C40.8878 22.4321 40.871 22.4717 40.8617 22.5131C40.8557 22.558 40.8557 22.6035 40.8617 22.6484H40.6499C40.6499 22.7732 40.5509 22.9139 40.8067 22.9696C40.4574 23.1076 40.1302 23.2164 39.8304 23.3571C39.6673 23.4526 39.5119 23.56 39.3657 23.6783C38.867 24.0056 38.3656 24.3277 37.8614 24.6444C37.7679 24.7028 37.6607 24.7931 37.5039 24.6975C37.4792 24.6816 37.3939 24.6975 37.3554 24.724C37.0144 24.9151 36.7009 25.1354 36.3407 25.2974C35.9804 25.4593 35.8182 25.738 35.4442 25.876C34.9674 26.0575 34.5074 26.2777 34.0692 26.5342C33.8545 26.6384 33.632 26.7271 33.4037 26.7996L33.4229 26.9456H33.3212C33.2497 26.9456 33.1672 26.9032 33.1149 26.9191C32.8399 27.0014 32.5814 27.0969 32.2899 27.1845L32.1552 27.0677L31.7564 27.1022V26.9164L31.4814 27.0146L31.5254 26.7811L31.2504 26.6457L31.3467 26.5077L31.2477 26.4918C31.2614 26.4201 31.3082 26.3458 31.2807 26.2874C31.2064 26.1228 31.0057 26.1547 30.8352 26.1732C30.6042 25.8654 30.6069 25.8547 30.9094 25.5999C30.8792 25.4619 30.7747 25.369 30.5629 25.3478V25.0824C30.2879 24.9762 30.2357 25.154 30.1174 25.2416C30.0019 25.223 29.9772 25.1779 30.0349 25.1169C30.0927 25.0558 30.1834 24.9921 30.2439 24.9205C30.2553 24.9054 30.2615 24.8873 30.2615 24.8687C30.2615 24.8501 30.2553 24.832 30.2439 24.8169C30.1963 24.7983 30.1431 24.7983 30.0954 24.8169C30.0264 24.8761 29.9671 24.945 29.9194 25.0213C29.8672 25.1116 29.8479 25.2204 29.6609 25.2098C29.4739 25.1992 29.4327 25.1195 29.4464 25.0001L29.2099 25.0585C29.1824 25.0319 29.1439 25.0107 29.1467 24.9921C29.1438 24.9286 29.155 24.8653 29.1797 24.8063C29.2787 24.6285 29.2044 24.3949 29.5344 24.2755C29.7517 24.2012 29.9717 24.0976 29.9607 23.8773C30.2109 23.6119 30.4584 23.3465 30.7142 23.0811C30.8654 22.9271 31.0304 22.7785 31.1954 22.6325C31.5502 22.3114 31.9269 22.0035 32.2542 21.669C32.3559 21.5629 32.5539 21.6239 32.6172 21.4939C32.6804 21.3638 32.5649 21.3081 32.6859 21.2072C33.0407 20.9073 33.3569 20.5835 33.6869 20.2703L34.1627 19.8137C33.9702 19.6757 33.7832 19.5483 33.6127 19.4156C33.4889 19.3201 33.3762 19.2165 33.2579 19.121L32.4769 18.4946C32.4247 18.2743 32.6227 18.0726 32.8839 17.8841C32.5407 17.5442 32.0969 17.3152 31.6134 17.2285C31.5144 16.7534 31.8884 16.496 32.3504 16.2704C32.4577 16.2146 32.6584 16.2252 32.6089 16.0633C32.6089 16.0633 32.6722 16.0235 32.7107 16.0102C32.9637 15.92 33.2194 15.8298 33.4779 15.7448C33.5493 15.7144 33.6256 15.6964 33.7034 15.6917C34.1489 15.7103 34.4982 15.5166 34.8887 15.4263C35.5817 15.2458 36.2637 15.0229 36.9759 14.8955C37.3059 14.8344 37.6414 14.792 37.9714 14.7283C38.5214 14.6221 39.0714 14.5 39.6214 14.3991C39.8213 14.3662 40.0237 14.3493 40.2264 14.3487C40.2489 14.3457 40.2717 14.3471 40.2935 14.3527C40.3154 14.3583 40.3359 14.3681 40.3538 14.3814C40.3717 14.3948 40.3867 14.4114 40.3979 14.4304C40.4091 14.4494 40.4162 14.4703 40.4189 14.492C40.4519 14.669 40.4904 14.8459 40.5344 15.0229C40.5647 15.1423 40.5729 15.2591 40.8342 15.2538C40.9689 15.2538 41.1339 15.3308 41.1312 15.4794C41.1255 15.5215 41.1363 15.5641 41.1614 15.5988C41.2077 15.6317 41.2404 15.6793 41.254 15.7331C41.2676 15.787 41.2611 15.8437 41.2357 15.8935C41.2219 15.92 41.2742 15.9651 41.3072 16.0209C41.3759 15.9757 41.4254 15.9173 41.4859 15.912C41.5797 15.8991 41.6753 15.9129 41.7609 15.9519C41.8462 16.0076 41.8214 16.0925 41.7114 16.135C41.6723 16.1453 41.638 16.1684 41.6144 16.2003C41.5909 16.2323 41.5795 16.2711 41.5822 16.3102C41.5822 16.3871 41.4694 16.4641 41.3952 16.5358C41.2439 16.6765 41.0844 16.8012 40.9249 16.9525L41.1724 17.1993C41.1346 17.2426 41.0824 17.2717 41.0247 17.2819C40.967 17.2921 40.9074 17.2826 40.8562 17.2551C40.8092 17.229 40.7548 17.2181 40.7009 17.2238C40.6471 17.2295 40.5965 17.2516 40.5564 17.2869C40.4602 17.3719 40.5152 17.4382 40.5812 17.5019C40.5226 17.594 40.4583 17.6827 40.3887 17.7673C40.3187 17.8314 40.2443 17.8908 40.1659 17.9452C40.1054 17.9903 40.0312 18.0301 39.9707 18.0752C39.6379 18.3247 39.3107 18.5769 38.9752 18.8264C38.9284 18.8472 38.8781 18.8597 38.8267 18.8635C38.6892 18.691 39.0164 18.5981 38.9449 18.4309H39.1869V18.3911L38.9367 18.2371C38.7833 18.4407 38.5568 18.5817 38.3014 18.6326C38.2299 18.7972 38.2162 18.9378 38.4004 19.052L38.3977 19.0732ZM32.3477 24.0101C32.5044 23.9782 32.6034 23.9172 32.6034 23.7765C32.4054 23.8694 32.4054 23.8694 32.3587 24.018C32.3167 24.0157 32.2753 24.029 32.2431 24.0552C32.2109 24.0813 32.1903 24.1183 32.1854 24.1587C32.2679 24.1242 32.3147 24.1162 32.3339 24.0923C32.3532 24.0685 32.3532 24.0393 32.3559 24.0101H32.3477ZM32.7464 22.1282C32.6914 22.1282 32.6172 22.1282 32.5897 22.1441C32.3985 22.2892 32.215 22.4433 32.0397 22.606C31.9986 22.6426 31.969 22.6897 31.9544 22.7418C31.9399 22.7939 31.9408 22.849 31.9572 22.9006L32.2927 22.5768C32.4467 22.4255 32.5979 22.2742 32.7492 22.1203C32.9747 21.9292 33.2579 21.7672 33.3652 21.5098C33.1583 21.6396 32.9624 21.7852 32.7794 21.9451C32.7327 21.9822 32.7602 22.0645 32.7547 22.1282H32.7464ZM37.0117 18.4574C37.1464 18.415 37.2691 18.3432 37.3703 18.2474C37.4714 18.1516 37.5482 18.0345 37.5947 17.9054L37.3197 18.0593L37.2894 18.0354L37.3939 17.8815C37.3352 17.8856 37.2785 17.9038 37.2289 17.9346C36.9977 18.0658 36.7859 18.2265 36.5992 18.4123C36.4397 18.5609 36.2582 18.699 36.0877 18.8423C35.9887 18.9272 35.9722 19.0042 36.1839 19.0414C36.3214 18.9272 36.4589 18.8078 36.6019 18.691C36.7449 18.5742 36.8137 18.407 37.0969 18.4256L37.0144 18.4654C36.9677 18.5274 36.9163 18.586 36.8604 18.6406C36.6844 18.7998 36.5002 18.9538 36.3104 19.1157L36.5139 19.3041C36.9292 18.8051 37.5122 18.4362 37.9302 17.977L37.8724 17.9425L37.1959 18.5424L37.0117 18.4574ZM35.5267 21.0161L35.2517 21.17L35.3837 21.2842C35.2311 21.4478 35.0197 21.5493 34.7924 21.5682C34.7154 21.5814 34.5944 21.677 34.6082 21.7115C34.6797 21.8973 34.4734 22.0088 34.3497 22.0672C34.1563 22.165 33.9869 22.3015 33.8526 22.4677C33.7184 22.6339 33.6225 22.8258 33.5714 23.0307C33.5714 23.0466 33.5192 23.0572 33.4779 23.0784L33.2689 22.9165C33.2084 23.0386 33.1039 23.1448 33.1259 23.2324C33.1699 23.4049 33.0462 23.5164 32.9444 23.6411C32.8427 23.7659 32.7052 23.9065 32.5897 24.0578C32.4192 24.2675 32.2542 24.4825 32.0754 24.7081L32.3064 24.8223V24.6046L32.5539 24.7002L32.6832 24.525C32.7996 24.5461 32.9197 24.5385 33.0322 24.5028C33.1447 24.467 33.2461 24.4044 33.3267 24.3206C33.4516 24.1995 33.6136 24.1204 33.7887 24.095L33.4367 24.4745C33.7557 24.3631 34.0059 24.2781 34.2617 24.1879C34.3112 24.1617 34.3551 24.1265 34.3909 24.0844C34.5799 23.8776 34.804 23.7035 35.0537 23.5695C35.2376 23.5053 35.4067 23.407 35.5514 23.2802C35.6711 23.1539 35.8149 23.0511 35.9749 22.9776C36.1124 22.8926 36.2499 22.813 36.3902 22.7121C36.6789 22.5104 36.7559 22.2344 36.5799 22.03C36.4039 21.8256 36.2362 21.6478 36.0602 21.4594C36.0196 21.4204 35.9764 21.384 35.9309 21.3505C35.7554 21.432 35.6138 21.5686 35.5294 21.738C35.5052 21.7958 35.4626 21.8447 35.4077 21.8776C35.3529 21.9105 35.2886 21.9258 35.2242 21.9212C35.2242 21.6027 35.6037 21.4832 35.8347 21.2736L35.5267 21.0161ZM37.7267 16.4827L37.6689 16.4429C36.3265 16.6523 35.0019 16.9575 33.7062 17.3559C34.4624 17.6771 34.8364 18.2106 35.4909 18.5716L37.7267 16.4827ZM33.9729 21.0267L34.7512 20.3632L34.5202 20.1853C34.2012 20.4508 33.8987 20.7162 33.5604 21.0161C33.8437 20.9577 33.8437 20.9577 33.9839 21.0267H33.9729ZM36.8714 23.3943C36.2527 23.7632 35.4442 23.949 35.0014 24.456C35.1791 24.3936 35.3526 24.3209 35.5212 24.2383C35.7192 24.1428 35.9062 24.0393 36.1042 23.9464C36.3022 23.8535 36.3242 23.6358 36.6267 23.6809C36.6459 23.6809 36.6789 23.6517 36.6954 23.6332L36.8714 23.3943ZM34.1819 21.3452C34.4534 21.1784 34.706 20.9844 34.9354 20.7666C35.0564 20.6153 35.0537 20.6127 34.8337 20.4799C34.5419 20.7062 34.3203 21.0055 34.1929 21.3452H34.1819ZM36.3819 15.3785C36.0145 15.4047 35.6549 15.4946 35.3204 15.644C35.6977 15.6354 36.0681 15.5446 36.4039 15.3785H36.3819ZM29.9194 24.5436C29.6444 24.456 29.5674 24.5913 29.4602 24.6816C29.4382 24.6975 29.5069 24.8063 29.5262 24.8037C29.6216 24.8076 29.7163 24.7874 29.8012 24.7453C29.8782 24.7002 29.8974 24.6179 29.9414 24.5436H29.9194ZM35.0124 15.7183C34.7428 15.7322 34.4839 15.8247 34.2699 15.9837C34.4097 15.9959 34.5506 15.9785 34.6826 15.9327C34.8147 15.8868 34.9348 15.8136 35.0344 15.7183H35.0124ZM32.9554 24.6577L33.0132 24.7108C33.1397 24.663 33.3047 24.6471 33.3074 24.4799L32.9554 24.6577ZM39.5884 17.6187L39.4207 17.8337C39.6242 17.7939 39.6819 17.7541 39.6104 17.6187H39.5884ZM37.9384 17.555L37.8972 17.5231L37.7377 17.6373L37.7899 17.6718L37.9384 17.555ZM39.3134 18.2159L39.3492 18.184L39.2447 18.0991L39.1677 18.1628L39.3134 18.2159ZM33.7749 21.178L33.7364 21.1541L33.6237 21.2576L33.6594 21.2762L33.7749 21.178ZM40.0037 17.563C39.9696 17.542 39.9326 17.5259 39.8937 17.5152C39.8799 17.5152 39.8332 17.5523 39.8387 17.5603C39.8591 17.5866 39.8867 17.6068 39.9184 17.6187C39.9184 17.6187 39.9679 17.5895 40.0092 17.563H40.0037Z" fill="white"/>
<path d="M35.304 14.8849C35.2904 14.9862 35.2432 15.0806 35.1693 15.1538C35.0954 15.227 34.9989 15.2752 34.8943 15.291C34.8309 15.3076 34.7643 15.3098 34.6999 15.2974C34.6355 15.285 34.5749 15.2582 34.523 15.2193C34.4787 15.1919 34.4461 15.1499 34.4314 15.1011C34.4168 15.0522 34.421 14.9999 34.4433 14.9539C34.5208 14.8584 34.6225 14.7838 34.7386 14.7374C34.8547 14.6909 34.9812 14.674 35.106 14.6885C35.2793 14.6991 35.2848 14.8052 35.304 14.8849Z" fill="white"/>
<path d="M41.8545 16.926C41.684 16.926 41.4942 16.8251 41.486 16.7189C41.4777 16.6128 41.607 16.5199 41.728 16.5093C41.849 16.4986 42.113 16.634 42.1185 16.7375C42.124 16.841 41.9975 16.9207 41.8545 16.926Z" fill="white"/>
<path d="M38.7965 18.8742C38.7415 19.0945 38.4747 19.1767 38.3097 19.3254L38.252 19.2962L38.3977 19.0732C38.593 19.0546 38.6205 18.9511 38.5957 18.8078L38.8157 18.8635L38.7965 18.8742Z" fill="white"/>
<path d="M29.4548 27.8719C29.4796 27.8905 29.5456 27.9197 29.5566 27.9569C29.5786 28.0339 29.4301 28.1347 29.3118 28.1188C29.2842 28.1152 29.2576 28.106 29.234 28.0918C29.2103 28.0776 29.1899 28.0588 29.1743 28.0365C29.1468 27.9595 29.2898 27.8719 29.4548 27.8719Z" fill="white"/>
<path d="M37.7874 19.7076V19.543C37.8382 19.5614 37.887 19.5845 37.9331 19.612C37.9099 19.6565 37.8802 19.6976 37.8451 19.7341L37.7874 19.7076Z" fill="white"/>
<path d="M38.0595 19.4899L37.8037 19.4103C37.856 19.3811 37.8862 19.3519 37.9 19.3572C37.9736 19.3753 38.0462 19.3975 38.1172 19.4236L38.0595 19.4899Z" fill="white"/>
<path d="M32.1909 16.0341C32.1512 16.0653 32.1066 16.0904 32.0589 16.1085C32.0369 16.1085 32.0012 16.0766 31.9709 16.058C31.9974 16.0275 32.029 16.0015 32.0644 15.9811C32.0837 15.9731 32.1249 16.0076 32.1909 16.0341Z" fill="white"/>
<path d="M34.127 22.3034C34.1792 22.2609 34.2177 22.2185 34.2342 22.2238C34.2854 22.2412 34.335 22.2625 34.3827 22.2875C34.3552 22.3087 34.3277 22.3485 34.3002 22.3485C34.2408 22.3402 34.1826 22.3251 34.127 22.3034Z" fill="white"/>
<path d="M33.8575 23.0811L34.0143 23.1262L33.9455 23.2191L33.8108 23.1342L33.8575 23.0811Z" fill="white"/>
<path d="M34.9602 22.0778L35.1225 21.9955L35.1637 22.0167C35.1417 22.0459 35.128 22.0804 35.095 22.099C35.0585 22.1103 35.0204 22.1156 34.9822 22.115L34.9602 22.0778Z" fill="white"/>
<path d="M4.24279 0C5.53529 0 6.47304 0.265422 7.05054 0.814845C7.62804 1.36427 7.92504 2.16584 7.92504 3.25673V3.76368C7.94688 4.39054 7.81496 5.01351 7.54004 5.58182C7.27379 6.07803 6.8443 6.47482 6.31904 6.70987C6.61876 6.77896 6.90047 6.90703 7.14653 7.08606C7.3926 7.26509 7.59771 7.49124 7.74904 7.75032C8.04373 8.33464 8.18447 8.98012 8.15879 9.62951C8.15879 10.0913 8.15879 10.3196 8.15879 10.7814C8.15879 11.8723 7.83979 12.7323 7.20729 13.3852C6.57479 14.0382 5.63979 14.4469 4.39679 14.6301C2.84304 14.853 2.06754 14.9751 0.519287 15.2352V0H4.24279ZM2.97779 2.12338C2.97779 3.69202 2.97779 4.47501 2.97779 6.04366L3.94579 5.98526C4.34953 5.98395 4.73955 5.84373 5.04579 5.58979C5.30795 5.35445 5.43995 4.94747 5.44179 4.36885V3.57258C5.48008 3.17359 5.37417 2.77409 5.14204 2.44188C5.01946 2.31946 4.86951 2.22568 4.70366 2.16772C4.5378 2.10976 4.36041 2.08915 4.18504 2.10745L2.97779 2.12338ZM2.97504 8.16173C2.97504 9.98783 2.97504 10.8956 2.97504 12.719L4.38854 12.5385C4.74792 12.5115 5.08498 12.3597 5.33729 12.1112C5.5868 11.7779 5.70303 11.3688 5.66454 10.9593C5.66454 10.455 5.66454 10.2028 5.66454 9.69852C5.66454 9.02435 5.54354 8.57578 5.29604 8.34487C5.04854 8.11395 4.64154 8.0237 4.07229 8.07944L2.97504 8.16173Z" fill="url(#paint0_linear_1212_240)"/>
<path d="M12.3911 5.76231C13.7523 5.70923 14.4343 5.68534 15.7956 5.64287C15.7956 6.40728 15.7956 6.78949 15.7956 7.55391C14.4206 7.6123 13.7523 7.64415 12.3911 7.71847V11.721C14.1071 11.583 14.9651 11.522 16.6811 11.4211C16.6811 12.1829 16.6811 12.5651 16.6811 13.3268C13.9696 13.5126 12.6166 13.6321 9.91333 13.9293C9.92433 9.288 9.93716 4.64488 9.95183 0H16.7168C16.7168 0.761761 16.7168 1.14131 16.7168 1.90308C15.0036 1.92166 14.1456 1.92962 12.4323 1.95351C12.3966 3.47703 12.3938 4.23879 12.3911 5.76231Z" fill="url(#paint1_linear_1212_240)"/>
<path d="M17.7728 0H25.4398V1.85795H22.8438V13.0057C21.8483 13.0349 21.3505 13.0535 20.3688 13.1012C20.3688 8.60498 20.3688 6.35686 20.3908 1.86061L17.7975 1.87919C17.77 1.13601 17.7728 0.756452 17.7728 0Z" fill="url(#paint2_linear_1212_240)"/>
<path d="M29.2759 5.74089C30.5602 5.74089 31.2009 5.74089 32.4824 5.76743C32.4824 6.50796 32.4824 6.87955 32.4824 7.62539C31.2009 7.60681 30.5574 7.59885 29.2732 7.59354C29.2732 9.71691 29.2732 10.7998 29.2732 12.9365C28.2777 12.9365 27.7799 12.9365 26.7844 12.9365C26.7844 7.7581 26.7844 5.17023 26.7844 -0.00549316H33.3487C33.3487 0.737688 33.3487 1.11193 33.3487 1.85246C31.7152 1.85246 30.8984 1.85246 29.2649 1.85246L29.2759 5.74089Z" fill="url(#paint3_linear_1212_240)"/>
<path d="M34.8228 0H37.2978C37.2978 4.52544 37.3143 6.78949 37.3225 11.3149C38.9725 11.3946 39.7783 11.4423 41.4118 11.5565C41.4118 12.3262 41.4118 12.7111 41.4118 13.4808C38.7828 13.2684 37.4683 13.1862 34.8338 13.0773C34.8365 7.84587 34.831 5.23147 34.8228 0Z" fill="url(#paint4_linear_1212_240)"/>
<path d="M42.7373 0H45.2123C45.2251 4.61303 45.238 9.22607 45.2508 13.8391C44.2608 13.7329 43.7631 13.6852 42.7758 13.5976C42.763 9.0677 42.7501 4.53518 42.7373 0Z" fill="url(#paint5_linear_1212_240)"/>
<path d="M50.5499 8.70849C50.2447 9.2128 50.0934 9.46495 49.7882 9.96129C49.7882 11.729 49.7882 12.6155 49.7882 14.3779C48.8009 14.2478 48.3059 14.1841 47.3132 14.0674C47.3003 9.38001 47.2875 4.69089 47.2747 0H49.7497L49.7634 6.26396C51.0559 3.83269 51.7022 2.58521 52.9974 0H55.4724C54.0974 2.71527 53.4044 4.02114 52.0322 6.55061C53.4072 9.89758 54.1029 11.6281 55.4724 15.2352C54.4604 15.0653 53.9544 14.9698 52.9424 14.8291C52.0074 12.3182 51.5234 11.0973 50.5499 8.70849Z" fill="url(#paint6_linear_1212_240)"/>
</g>
<defs>
<linearGradient id="paint0_linear_1212_240" x1="0.725537" y1="7.61761" x2="55.4093" y2="7.61761" gradientUnits="userSpaceOnUse">
<stop stop-color="#D6952B"/>
<stop offset="0.5" stop-color="#F0E834"/>
<stop offset="1" stop-color="#DC9B29"/>
</linearGradient>
<linearGradient id="paint1_linear_1212_240" x1="0.725579" y1="6.96467" x2="55.4093" y2="6.96467" gradientUnits="userSpaceOnUse">
<stop stop-color="#D6952B"/>
<stop offset="0.5" stop-color="#F0E834"/>
<stop offset="1" stop-color="#DC9B29"/>
</linearGradient>
<linearGradient id="paint2_linear_1212_240" x1="0.725531" y1="6.55592" x2="55.4093" y2="6.55592" gradientUnits="userSpaceOnUse">
<stop stop-color="#D6952B"/>
<stop offset="0.5" stop-color="#F0E834"/>
<stop offset="1" stop-color="#DC9B29"/>
</linearGradient>
<linearGradient id="paint3_linear_1212_240" x1="0.725429" y1="6.4708" x2="55.4092" y2="6.4708" gradientUnits="userSpaceOnUse">
<stop stop-color="#D6952B"/>
<stop offset="0.5" stop-color="#F0E834"/>
<stop offset="1" stop-color="#DC9B29"/>
</linearGradient>
<linearGradient id="paint4_linear_1212_240" x1="0.725494" y1="6.74172" x2="55.4093" y2="6.74172" gradientUnits="userSpaceOnUse">
<stop stop-color="#D6952B"/>
<stop offset="0.5" stop-color="#F0E834"/>
<stop offset="1" stop-color="#DC9B29"/>
</linearGradient>
<linearGradient id="paint5_linear_1212_240" x1="0.725555" y1="6.91955" x2="55.4093" y2="6.91955" gradientUnits="userSpaceOnUse">
<stop stop-color="#D6952B"/>
<stop offset="0.5" stop-color="#F0E834"/>
<stop offset="1" stop-color="#DC9B29"/>
</linearGradient>
<linearGradient id="paint6_linear_1212_240" x1="0.725411" y1="7.61761" x2="55.4092" y2="7.61761" gradientUnits="userSpaceOnUse">
<stop stop-color="#D6952B"/>
<stop offset="0.5" stop-color="#F0E834"/>
<stop offset="1" stop-color="#DC9B29"/>
</linearGradient>
<clipPath id="clip0_1212_240">
<rect width="55" height="29" fill="white" transform="translate(0.5)"/>
</clipPath>
</defs>
</svg>
